<svg width="220" height="45" viewBox="0 0 220 45" fill="none" xmlns="http://www.w3.org/2000/svg">
<path d="M72.6373 15.3001C74.0156 15.3001 75.2455 15.586 76.3269 16.1577C77.4296 16.7295 78.2884 17.5765 78.9033 18.6989C79.5395 19.8212 79.8575 21.1765 79.8575 22.7648V33.0883H76.2633V23.3048C76.2633 21.7377 75.871 20.5412 75.0865 19.7154C74.3019 18.8683 73.231 18.4448 71.8739 18.4448C70.5168 18.4448 69.4354 18.8683 68.6296 19.7154C67.845 20.5412 67.4527 21.7377 67.4527 23.3048V33.0883H63.8585V23.3048C63.8585 21.7377 63.4662 20.5412 62.6816 19.7154C61.8971 18.8683 60.8262 18.4448 59.4691 18.4448C58.112 18.4448 57.0306 18.8683 56.2248 19.7154C55.4402 20.5412 55.0479 21.7377 55.0479 23.3048V33.0883H51.4219V15.586H55.0479V17.5871C55.6416 16.8671 56.3944 16.306 57.3062 15.9036C58.218 15.5012 59.1934 15.3001 60.2325 15.3001C61.632 15.3001 62.8831 15.5965 63.9857 16.1895C65.0884 16.7824 65.9366 17.6401 66.5303 18.7624C67.0604 17.7036 67.8874 16.8671 69.0113 16.253C70.1351 15.6177 71.3438 15.3001 72.6373 15.3001Z" fill="white"/>
<path d="M99.1347 15.586L88.3839 41.3154H84.6306L88.193 32.8024L81.2909 15.586H85.3304L90.2605 28.9271L95.3815 15.586H99.1347Z" fill="white"/>
<path d="M127.119 15.173C129.324 15.173 131.073 15.8401 132.367 17.1742C133.682 18.5083 134.339 20.3612 134.339 22.733V33.0883H128.932V23.4636C128.932 22.3201 128.624 21.4412 128.009 20.8271C127.415 20.1918 126.588 19.8742 125.528 19.8742C124.468 19.8742 123.63 20.1918 123.015 20.8271C122.422 21.4412 122.125 22.3201 122.125 23.4636V33.0883H116.718V23.4636C116.718 22.3201 116.41 21.4412 115.795 20.8271C115.202 20.1918 114.375 19.8742 113.314 19.8742C112.254 19.8742 111.416 20.1918 110.802 20.8271C110.208 21.4412 109.911 22.3201 109.911 23.4636V33.0883H104.472V15.3636H109.911V17.5871C110.462 16.846 111.183 16.2636 112.074 15.8401C112.964 15.3954 113.972 15.173 115.095 15.173C116.431 15.173 117.619 15.4589 118.658 16.0307C119.718 16.6024 120.545 17.4177 121.139 18.4765C121.754 17.5024 122.591 16.7083 123.652 16.0942C124.712 15.4801 125.868 15.173 127.119 15.173Z" fill="white"/>
<path d="M145.109 33.3424C143.37 33.3424 141.801 32.9718 140.401 32.2307C139.023 31.4895 137.931 30.4307 137.125 29.0542C136.34 27.6777 135.948 26.0683 135.948 24.226C135.948 22.4048 136.351 20.806 137.157 19.4295C137.963 18.0318 139.065 16.9624 140.465 16.2212C141.864 15.4801 143.433 15.1095 145.172 15.1095C146.911 15.1095 148.48 15.4801 149.88 16.2212C151.279 16.9624 152.382 18.0318 153.188 19.4295C153.993 20.806 154.396 22.4048 154.396 24.226C154.396 26.0471 153.983 27.6565 153.156 29.0542C152.35 30.4307 151.237 31.4895 149.816 32.2307C148.417 32.9718 146.847 33.3424 145.109 33.3424ZM145.109 28.6412C146.148 28.6412 147.028 28.2601 147.749 27.4977C148.491 26.7354 148.862 25.6448 148.862 24.226C148.862 22.8071 148.501 21.7165 147.78 20.9542C147.081 20.1918 146.211 19.8107 145.172 19.8107C144.112 19.8107 143.232 20.1918 142.532 20.9542C141.832 21.6954 141.483 22.786 141.483 24.226C141.483 25.6448 141.822 26.7354 142.5 27.4977C143.2 28.2601 144.07 28.6412 145.109 28.6412Z" fill="white"/>
<path d="M164.152 28.006L168.001 15.3636H173.79L167.492 33.0883H160.781L154.483 15.3636H160.303L164.152 28.006Z" fill="white"/>
<path d="M177.701 13.5212C176.747 13.5212 175.963 13.246 175.348 12.6954C174.754 12.1236 174.457 11.4248 174.457 10.5989C174.457 9.75183 174.754 9.05301 175.348 8.50242C175.963 7.93066 176.747 7.64478 177.701 7.64478C178.634 7.64478 179.398 7.93066 179.991 8.50242C180.606 9.05301 180.914 9.75183 180.914 10.5989C180.914 11.4248 180.606 12.1236 179.991 12.6954C179.398 13.246 178.634 13.5212 177.701 13.5212ZM180.405 15.3636V33.0883H174.966V15.3636H180.405Z" fill="white"/>
<path d="M199.964 23.9401C199.964 24.4483 199.932 24.9777 199.868 25.5283H187.559C187.644 26.6295 187.994 27.4765 188.609 28.0695C189.245 28.6412 190.019 28.9271 190.931 28.9271C192.288 28.9271 193.231 28.3554 193.761 27.2118H199.55C199.254 28.3765 198.713 29.4248 197.928 30.3565C197.165 31.2883 196.2 32.0189 195.034 32.5483C193.867 33.0777 192.563 33.3424 191.121 33.3424C189.383 33.3424 187.835 32.9718 186.478 32.2307C185.12 31.4895 184.06 30.4307 183.297 29.0542C182.534 27.6777 182.152 26.0683 182.152 24.226C182.152 22.3836 182.523 20.7742 183.265 19.3977C184.028 18.0212 185.089 16.9624 186.446 16.2212C187.803 15.4801 189.361 15.1095 191.121 15.1095C192.839 15.1095 194.366 15.4695 195.702 16.1895C197.038 16.9095 198.077 17.9365 198.819 19.2707C199.582 20.6048 199.964 22.1612 199.964 23.9401ZM194.398 22.5107C194.398 21.5789 194.08 20.8377 193.443 20.2871C192.807 19.7365 192.012 19.4612 191.058 19.4612C190.146 19.4612 189.372 19.726 188.736 20.2554C188.121 20.7848 187.739 21.5365 187.591 22.5107H194.398Z" fill="white"/>
<path d="M208.94 33.3424C207.392 33.3424 206.014 33.0777 204.805 32.5483C203.597 32.0189 202.642 31.2989 201.943 30.3883C201.243 29.4565 200.851 28.4189 200.766 27.2754H206.141C206.205 27.8895 206.491 28.3871 207 28.7683C207.509 29.1495 208.134 29.3401 208.877 29.3401C209.555 29.3401 210.075 29.213 210.435 28.9589C210.817 28.6836 211.008 28.3342 211.008 27.9107C211.008 27.4024 210.743 27.0318 210.213 26.7989C209.682 26.5448 208.824 26.2695 207.636 25.973C206.364 25.6765 205.304 25.3695 204.455 25.0518C203.607 24.713 202.876 24.1942 202.261 23.4954C201.646 22.7754 201.338 21.8118 201.338 20.6048C201.338 19.5883 201.614 18.6671 202.165 17.8412C202.738 16.9942 203.565 16.3271 204.646 15.8401C205.749 15.353 207.053 15.1095 208.559 15.1095C210.785 15.1095 212.534 15.6601 213.807 16.7612C215.1 17.8624 215.842 19.3236 216.033 21.1448H211.008C210.923 20.5307 210.647 20.0436 210.181 19.6836C209.735 19.3236 209.142 19.1436 208.4 19.1436C207.763 19.1436 207.276 19.2707 206.936 19.5248C206.597 19.7577 206.427 20.086 206.427 20.5095C206.427 21.0177 206.693 21.3989 207.223 21.653C207.774 21.9071 208.622 22.1612 209.767 22.4154C211.082 22.7542 212.153 23.093 212.98 23.4318C213.807 23.7495 214.528 24.2789 215.143 25.0201C215.779 25.7401 216.107 26.7142 216.129 27.9424C216.129 28.9801 215.832 29.9118 215.238 30.7377C214.666 31.5424 213.828 32.1777 212.725 32.6436C211.644 33.1095 210.382 33.3424 208.94 33.3424Z" fill="white"/>
<path d="M36.4101 18.8665L6.21134 0.577237C3.75769 -0.908054 0 0.533294 0 4.20697V40.7768C0 44.0725 3.49173 46.0588 6.21134 44.4065L36.4101 26.126C39.104 24.5001 39.1126 20.4924 36.4101 18.8665Z" fill="#7B61FF"/>
</svg>
